STARTFONT 2.1
COMMENT Based on standard 12x24 fixed font. Changes 1999-2000 by Serge Winitzki.
COMMENT This software may be used, modified, copied, distributed, and sold,
COMMENT in both source and binary form provided that the copyright
COMMENT and these terms are retained. Under no circumstances is the author
COMMENT responsible for the proper functioning of this software, nor does
COMMENT the author assume any responsibility for damages incurred with its use.
COMMENT $XFree86$
FONT -Misc-Fixed-Medium-R-Normal--24-170-100-100-C-120-KOI8-R
SIZE 17 100 100
FONTBOUNDINGBOX 12 26 0 -3
STARTPROPERTIES 21
FONTNAME_REGISTRY ""
FOUNDRY "Misc"
FAMILY_NAME "Fixed"
WEIGHT_NAME "Medium"
SLANT "R"
SETWIDTH_NAME "Normal"
ADD_STYLE_NAME ""
PIXEL_SIZE 24
POINT_SIZE 170
RESOLUTION_X 100
RESOLUTION_Y 100
SPACING "C"
AVERAGE_WIDTH 120
CHARSET_REGISTRY "KOI8"
CHARSET_ENCODING "R"
DEFAULT_CHAR 32
FONT_DESCENT 3
FONT_ASCENT 22
_MULE_BASELINE_OFFSET -3
_XMBDFED_INFO "Edited with xmbdfed 3.8."
_XFREE86_GLYPH_RANGES "0_126 149 152_154 156_158 163 179 191_255"
ENDPROPERTIES
CHARS 201
STARTCHAR char0
ENCODING 0
SWIDTH 508 0
DWIDTH 12 0
BBX 12 19 0 1
BITMAP
C060
8020
0000
0000
0000
8020
C060
8020
0000
0000
0000
0000
0000
0000
0000
0000
0000
8020
C060
ENDCHAR
STARTCHAR uni25C6
ENCODING 1
SWIDTH 508 0
DWIDTH 12 0
BBX 12 21 0 1
BITMAP
0400
0400
0E00
0E00
1F00
1F00
3F80
3F80
7FC0
7FC0
FFE0
7FC0
7FC0
3F80
3F80
1F00
1F00
0E00
0E00
0400
0400
ENDCHAR
STARTCHAR shade
ENCODING 2
SWIDTH 508 0
DWIDTH 12 0
BBX 12 21 0 1
BITMAP
C630
C630
C630
30C0
30C0
30C0
C630
C630
C630
30C0
30C0
30C0
C630
C630
C630
30C0
30C0
30C0
C630
C630
C630
ENDCHAR
STARTCHAR uni2409
ENCODING 3
SWIDTH 508 0
DWIDTH 12 0
BBX 12 19 0 1
BITMAP
C600
C600
C600
C600
FE00
C600
C600
C600
C600
0000
0000
3FC0
0600
0600
0600
0600
0600
0600
0600
ENDCHAR
STARTCHAR uni240C
ENCODING 4
SWIDTH 508 0
DWIDTH 12 0
BBX 12 19 0 1
BITMAP
FE00
C000
C000
C000
FC00
C000
C000
C000
C000
0000
1FC0
1800
1800
1800
1F80
1800
1800
1800
1800
ENDCHAR
STARTCHAR uni240D
ENCODING 5
SWIDTH 508 0
DWIDTH 12 0
BBX 12 19 0 1
BITMAP
3C00
6600
C600
C000
C000
C000
C000
6600
3C00
0000
1F80
18C0
18C0
18C0
1F80
1900
1980
18C0
18C0
ENDCHAR
STARTCHAR uni240A
ENCODING 6
SWIDTH 508 0
DWIDTH 12 0
BBX 12 19 0 1
BITMAP
C000
C000
C000
C000
C000
C000
C000
C000
FE00
0000
1FC0
1800
1800
1800
1F80
1800
1800
1800
1800
ENDCHAR
STARTCHAR degree
ENCODING 7
SWIDTH 508 0
DWIDTH 12 0
BBX 12 6 0 12
BITMAP
0E00
1B00
3180
3180
1B00
0E00
ENDCHAR
STARTCHAR plusminus
ENCODING 8
SWIDTH 508 0
DWIDTH 12 0
BBX 12 17 0 2
BITMAP
0C00
0C00
0C00
0C00
0C00
0C00
FFC0
FFC0
0C00
0C00
0C00
0C00
0C00
0C00
0000
FFC0
FFC0
ENDCHAR
STARTCHAR uni2424
ENCODING 9
SWIDTH 508 0
DWIDTH 12 0
BBX 12 19 0 1
BITMAP
E300
E300
D300
D300
CB00
CB00
C700
C700
C300
0000
1800
1800
1800
1800
1800
1800
1800
1800
1FC0
ENDCHAR
STARTCHAR uni240B
ENCODING 10
SWIDTH 508 0
DWIDTH 12 0
BBX 12 19 0 1
BITMAP
C180
C180
6300
6300
3600
3600
1C00
1C00
0800
0000
0000
3FC0
0600
0600
0600
0600
0600
0600
0600
ENDCHAR
STARTCHAR SF040000
ENCODING 11
SWIDTH 508 0
DWIDTH 12 0
BBX 8 13 0 9
BITMAP
04
04
04
04
04
04
04
04
04
04
04
04
FC
ENDCHAR
STARTCHAR SF030000
ENCODING 12
SWIDTH 508 0
DWIDTH 12 0
BBX 8 12 0 -2
BITMAP
FC
04
04
04
04
04
04
04
04
04
04
04
ENDCHAR
STARTCHAR SF010000
ENCODING 13
SWIDTH 508 0
DWIDTH 12 0
BBX 12 12 0 -2
BITMAP
07F0
0400
0400
0400
0400
0400
0400
0400
0400
0400
0400
0400
ENDCHAR
STARTCHAR SF020000
ENCODING 14
SWIDTH 508 0
DWIDTH 12 0
BBX 12 13 0 9
BITMAP
0400
0400
0400
0400
0400
0400
0400
0400
0400
0400
0400
0400
07F0
ENDCHAR
STARTCHAR SF050000
ENCODING 15
SWIDTH 508 0
DWIDTH 12 0
BBX 12 24 0 -2
BITMAP
0400
0400
0400
0400
0400
0400
0400
0400
0400
0400
0400
0400
FFF0
0400
0400
0400
0400
0400
0400
0400
0400
0400
0400
0400
ENDCHAR
STARTCHAR char16
ENCODING 16
SWIDTH 508 0
DWIDTH 12 0
BBX 12 1 0 19
BITMAP
FFF0
ENDCHAR
STARTCHAR char17
ENCODING 17
SWIDTH 508 0
DWIDTH 12 0
BBX 12 1 0 14
BITMAP
FFF0
ENDCHAR
STARTCHAR char18
ENCODING 18
SWIDTH 508 0
DWIDTH 12 0
BBX 12 1 0 9
BITMAP
FFF0
ENDCHAR
STARTCHAR char19
ENCODING 19
SWIDTH 508 0
DWIDTH 12 0
BBX 12 1 0 4
BITMAP
FFF0
ENDCHAR
STARTCHAR char20
ENCODING 20
SWIDTH 508 0
DWIDTH 12 0
BBX 12 1 0 -1
BITMAP
FFF0
ENDCHAR
STARTCHAR SF080000
ENCODING 21
SWIDTH 508 0
DWIDTH 12 0
BBX 12 24 0 -2
BITMAP
0400
0400
0400
0400
0400
0400
0400
0400
0400
0400
0400
0400
07F0
0400
0400
0400
0400
0400
0400
0400
0400
0400
0400
0400
ENDCHAR
STARTCHAR SF090000
ENCODING 22
SWIDTH 508 0
DWIDTH 12 0
BBX 8 24 0 -2
BITMAP
04
04
04
04
04
04
04
04
04
04
04
04
FC
04
04
04
04
04
04
04
04
04
04
04
ENDCHAR
STARTCHAR SF070000
ENCODING 23
SWIDTH 508 0
DWIDTH 12 0
BBX 12 13 0 9
BITMAP
0400
0400
0400
0400
0400
0400
0400
0400
0400
0400
0400
0400
FFF0
ENDCHAR
STARTCHAR SF060000
ENCODING 24
SWIDTH 508 0
DWIDTH 12 0
BBX 12 12 0 -2
BITMAP
FFF0
0400
0400
0400
0400
0400
0400
0400
0400
0400
0400
0400
ENDCHAR
STARTCHAR SF110000
ENCODING 25
SWIDTH 508 0
DWIDTH 12 0
BBX 12 24 0 -2
BITMAP
0400
0400
0400
0400
0400
0400
0400
0400
0400
0400
0400
0400
0400
0400
0400
0400
0400
0400
0400
0400
0400
0400
0400
0400
ENDCHAR
STARTCHAR lessequal
ENCODING 26
SWIDTH 508 0
DWIDTH 12 0
BBX 12 14 0 1
BITMAP
0040
00C0
0380
0E00
3800
E000
3800
0E00
0380
00C0
0040
FFC0
0000
FFC0
ENDCHAR
STARTCHAR greaterequal
ENCODING 27
SWIDTH 508 0
DWIDTH 12 0
BBX 12 14 0 1
BITMAP
8000
C000
7000
1C00
0700
01C0
0700
1C00
7000
C000
8000
FFC0
0000
FFC0
ENDCHAR
STARTCHAR pi
ENCODING 28
SWIDTH 508 0
DWIDTH 12 0
BBX 12 10 0 1
BITMAP
FFE0
3180
3180
3180
3180
3180
7180
6180
C180
C180
ENDCHAR
STARTCHAR notequal
ENCODING 29
SWIDTH 508 0
DWIDTH 12 0
BBX 12 13 0 2
BITMAP
00C0
0180
0100
0200
FFC0
0400
0C00
0800
FFC0
1000
2000
6000
C000
ENDCHAR
STARTCHAR sterling
ENCODING 30
SWIDTH 508 0
DWIDTH 12 0
BBX 12 17 0 1
BITMAP
0380
0440
0C60
0C60
0C00
0C00
0C00
0C00
7F80
8C00
0C00
0C00
0C00
7F00
CC80
CCE0
7860
ENDCHAR
STARTCHAR periodcentered
ENCODING 31
SWIDTH 508 0
DWIDTH 12 0
BBX 12 2 0 8
BITMAP
0C00
0C00
ENDCHAR
STARTCHAR space
ENCODING 32
SWIDTH 508 0
DWIDTH 12 0
BBX 0 0 0 0
BITMAP
ENDCHAR
STARTCHAR exclam
ENCODING 33
SWIDTH 508 0
DWIDTH 12 0
BBX 12 19 0 1
BITMAP
0E00
0E00
0E00
0E00
0E00
0E00
0E00
0E00
0E00
0400
0400
0400
0400
0400
0000
0000
0E00
0E00
0E00
ENDCHAR
STARTCHAR quotedbl
ENCODING 34
SWIDTH 508 0
DWIDTH 12 0
BBX 12 6 0 16
BITMAP
7380
7380
3180
3180
2100
4200
ENDCHAR
STARTCHAR numbersign
ENCODING 35
SWIDTH 508 0
DWIDTH 12 0
BBX 12 22 0 -1
BITMAP
0880
0880
0880
0880
0880
0880
7FE0
7FE0
1100
1100
1100
1100
1100
1100
FFC0
FFC0
2200
2200
2200
2200
2200
2200
ENDCHAR
STARTCHAR dollar
ENCODING 36
SWIDTH 508 0
DWIDTH 12 0
BBX 12 22 0 -1
BITMAP
0400
0400
1F00
64C0
C460
C460
C400
C400
E400
7C00
1F00
07C0
04E0
0460
0460
0460
C460
C460
64C0
1F00
0400
0400
ENDCHAR
STARTCHAR percent
ENCODING 37
SWIDTH 508 0
DWIDTH 12 0
BBX 12 22 0 -1
BITMAP
7820
CC20
CC40
CC40
CC80
CC80
7900
0100
0200
0200
0400
0400
0800
0800
1000
13C0
2660
2660
4660
4660
8660
83C0
ENDCHAR
STARTCHAR ampersand
ENCODING 38
SWIDTH 508 0
DWIDTH 12 0
BBX 12 19 0 1
BITMAP
1E00
2100
6180
6180
6180
6300
6600
3400
1800
1800
2C00
4400
C660
C320
C160
C1C0
C080
61C0
3F60
ENDCHAR
STARTCHAR quotesingle
ENCODING 39
SWIDTH 508 0
DWIDTH 12 0
BBX 8 6 0 16
BITMAP
1C
1C
0C
0C
08
10
ENDCHAR
STARTCHAR parenleft
ENCODING 40
SWIDTH 508 0
DWIDTH 12 0
BBX 12 24 0 -2
BITMAP
0040
0080
0180
0100
0300
0200
0600
0600
0400
0C00
0C00
0C00
0C00
0C00
0C00
0400
0600
0600
0200
0300
0100
0180
0080
0040
ENDCHAR
STARTCHAR parenright
ENCODING 41
SWIDTH 508 0
DWIDTH 12 0
BBX 8 24 0 -2
BITMAP
40
20
30
10
18
08
0C
0C
04
06
06
06
06
06
06
04
0C
0C
08
18
10
30
20
40
ENDCHAR
STARTCHAR asterisk
ENCODING 42
SWIDTH 508 0
DWIDTH 12 0
BBX 12 12 0 3
BITMAP
0C00
0C00
CCC0
EDC0
3F00
0C00
0C00
3F00
EDC0
CCC0
0C00
0C00
ENDCHAR
STARTCHAR plus
ENCODING 43
SWIDTH 508 0
DWIDTH 12 0
BBX 12 14 0 2
BITMAP
0600
0600
0600
0600
0600
0600
7FE0
7FE0
0600
0600
0600
0600
0600
0600
ENDCHAR
STARTCHAR comma
ENCODING 44
SWIDTH 508 0
DWIDTH 12 0
BBX 8 6 0 -2
BITMAP
1C
1C
0C
0C
08
10
ENDCHAR
STARTCHAR hyphen
ENCODING 45
SWIDTH 508 0
DWIDTH 12 0
BBX 12 2 0 8
BITMAP
FFE0
FFE0
ENDCHAR
STARTCHAR period
ENCODING 46
SWIDTH 508 0
DWIDTH 12 0
BBX 8 3 0 1
BITMAP
1C
1C
1C
ENDCHAR
STARTCHAR slash
ENCODING 47
SWIDTH 508 0
DWIDTH 12 0
BBX 12 22 0 -1
BITMAP
0020
0060
0040
00C0
0080
0180
0100
0300
0200
0600
0400
0C00
0800
1800
1000
3000
2000
6000
4000
C000
8000
8000
ENDCHAR
STARTCHAR zero
ENCODING 48
SWIDTH 508 0
DWIDTH 12 0
BBX 12 20 0 1
BITMAP
0E00
1B00
3180
2080
60C0
4040
C060
C060
C060
C060
C060
C060
C060
C060
4040
60C0
2080
3180
1B00
0E00
ENDCHAR
STARTCHAR one
ENCODING 49
SWIDTH 508 0
DWIDTH 12 0
BBX 12 20 0 1
BITMAP
0600
0E00
1E00
7E00
0600
0600
0600
0600
0600
0600
0600
0600
0600
0600
0600
0600
0600
0600
0600
3FC0
ENDCHAR
STARTCHAR two
ENCODING 50
SWIDTH 508 0
DWIDTH 12 0
BBX 12 20 0 1
BITMAP
0E00
3180
60C0
4060
8060
0060
0060
00C0
00C0
0180
0300
0200
0400
0800
1000
2020
4020
4060
FFE0
FFE0
ENDCHAR
STARTCHAR three
ENCODING 51
SWIDTH 508 0
DWIDTH 12 0
BBX 12 20 0 1
BITMAP
3E00
6380
8180
00C0
00C0
00C0
0080
0100
1E00
3F80
01C0
00E0
0060
0060
0060
0060
00C0
0180
0700
F800
ENDCHAR
STARTCHAR four
ENCODING 52
SWIDTH 508 0
DWIDTH 12 0
BBX 12 20 0 1
BITMAP
0180
0180
0380
0380
0580
0580
0980
0980
1180
1180
2180
2180
4180
4180
FFE0
0180
0180
0180
0180
07E0
ENDCHAR
STARTCHAR five
ENCODING 53
SWIDTH 508 0
DWIDTH 12 0
BBX 12 20 0 1
BITMAP
7FE0
7FC0
4000
4000
4000
4000
4000
5F00
7180
60C0
4060
0060
0060
0060
0060
0060
00C0
00C0
0380
7C00
ENDCHAR
STARTCHAR six
ENCODING 54
SWIDTH 508 0
DWIDTH 12 0
BBX 12 20 0 1
BITMAP
0380
0C00
1000
3000
6000
6000
C000
C000
CF00
F0C0
C060
C060
C060
C060
C060
C060
60C0
60C0
3180
0E00
ENDCHAR
STARTCHAR seven
ENCODING 55
SWIDTH 508 0
DWIDTH 12 0
BBX 12 20 0 1
BITMAP
FFE0
FFE0
C020
8040
8080
0080
0100
0100
0200
0200
0600
0600
0400
0C00
0C00
0C00
0C00
0C00
0C00
0C00
ENDCHAR
STARTCHAR eight
ENCODING 56
SWIDTH 508 0
DWIDTH 12 0
BBX 12 20 0 1
BITMAP
0E00
3180
2080
60C0
60C0
60C0
60C0
3080
3900
1E00
1F00
23C0
40C0
C060
C060
C060
C060
4040
60C0
1F00
ENDCHAR
STARTCHAR nine
ENCODING 57
SWIDTH 508 0
DWIDTH 12 0
BBX 12 20 0 1
BITMAP
0E00
3180
60C0
60C0
C060
C060
C060
C060
C060
4060
61E0
1E60
0060
0060
00C0
00C0
0180
0100
0600
3800
ENDCHAR
STARTCHAR colon
ENCODING 58
SWIDTH 508 0
DWIDTH 12 0
BBX 12 13 0 1
BITMAP
0E00
0E00
0E00
0000
0000
0000
0000
0000
0000
0000
0E00
0E00
0E00
ENDCHAR
STARTCHAR semicolon
ENCODING 59
SWIDTH 508 0
DWIDTH 12 0
BBX 12 16 0 -2
BITMAP
0E00
0E00
0E00
0000
0000
0000
0000
0000
0000
0000
0E00
0E00
0600
0600
0400
0800
ENDCHAR
STARTCHAR less
ENCODING 60
SWIDTH 508 0
DWIDTH 12 0
BBX 12 20 0 1
BITMAP
0020
0060
00C0
0180
0300
0600
0C00
1800
3000
6000
6000
3000
1800
0C00
0600
0300
0180
00C0
0060
0020
ENDCHAR
STARTCHAR equal
ENCODING 61
SWIDTH 508 0
DWIDTH 12 0
BBX 12 8 0 5
BITMAP
FFE0
FFE0
0000
0000
0000
0000
FFE0
FFE0
ENDCHAR
STARTCHAR greater
ENCODING 62
SWIDTH 508 0
DWIDTH 12 0
BBX 12 20 0 1
BITMAP
4000
6000
3000
1800
0C00
0600
0300
0180
00C0
0060
0060
00C0
0180
0300
0600
0C00
1800
3000
6000
4000
ENDCHAR
STARTCHAR question
ENCODING 63
SWIDTH 508 0
DWIDTH 12 0
BBX 12 19 0 1
BITMAP
0F00
30C0
6060
6060
7060
3060
00E0
00C0
0180
0300
0200
0400
0400
0400
0000
0000
0E00
0E00
0E00
ENDCHAR
STARTCHAR at
ENCODING 64
SWIDTH 508 0
DWIDTH 12 0
BBX 12 20 0 0
BITMAP
1F00
2080
60C0
4040
C060
8D20
9720
B320
B320
B320
B320
B320
B320
B760
9DC0
C000
4000
6020
20C0
1F00
ENDCHAR
STARTCHAR A
ENCODING 65
SWIDTH 508 0
DWIDTH 12 0
BBX 12 19 0 1
BITMAP
0600
0600
0600
0B00
0B00
0B00
0980
1180
1180
1180
20C0
20C0
3FC0
20C0
4060
4060
4060
4060
E0F0
ENDCHAR
STARTCHAR B
ENCODING 66
SWIDTH 508 0
DWIDTH 12 0
BBX 12 19 0 1
BITMAP
FE00
6180
60C0
60C0
60C0
60C0
60C0
6080
6100
7E00
6180
60C0
6060
6060
6060
6060
60C0
6180
FE00
ENDCHAR
STARTCHAR C
ENCODING 67
SWIDTH 508 0
DWIDTH 12 0
BBX 12 19 0 1
BITMAP
0720
18E0
3060
3020
6000
6000
6000
6000
6000
6000
6000
6000
6000
6000
6000
3020
3020
18C0
0700
ENDCHAR
STARTCHAR D
ENCODING 68
SWIDTH 508 0
DWIDTH 12 0
BBX 12 19 0 1
BITMAP
FC00
6300
6180
60C0
60C0
6060
6060
6060
6060
6060
6060
6060
6060
6060
60C0
60C0
6180
6300
FC00
ENDCHAR
STARTCHAR E
ENCODING 69
SWIDTH 508 0
DWIDTH 12 0
BBX 12 19 0 1
BITMAP
FFC0
60C0
6040
6020
6000
6000
6100
6100
6300
7F00
6300
6100
6100
6000
6000
6020
6040
60C0
FFC0
ENDCHAR
STARTCHAR F
ENCODING 70
SWIDTH 508 0
DWIDTH 12 0
BBX 12 19 0 1
BITMAP
FFC0
60C0
6040
6020
6000
6000
6100
6100
6300
7F00
6300
6100
6100
6000
6000
6000
6000
6000
F000
ENDCHAR
STARTCHAR G
ENCODING 71
SWIDTH 508 0
DWIDTH 12 0
BBX 12 19 0 1
BITMAP
0E40
31C0
60C0
6040
C000
C000
C000
C000
C000
C000
C3E0
C0C0
C0C0
C0C0
C0C0
60C0
60C0
31C0
0E40
ENDCHAR
STARTCHAR H
ENCODING 72
SWIDTH 508 0
DWIDTH 12 0
BBX 12 19 0 1
BITMAP
F1E0
60C0
60C0
60C0
60C0
60C0
60C0
60C0
60C0
7FC0
60C0
60C0
60C0
60C0
60C0
60C0
60C0
60C0
F1E0
ENDCHAR
STARTCHAR I
ENCODING 73
SWIDTH 508 0
DWIDTH 12 0
BBX 8 19 0 1
BITMAP
3F
0C
0C
0C
0C
0C
0C
0C
0C
0C
0C
0C
0C
0C
0C
0C
0C
0C
3F
ENDCHAR
STARTCHAR J
ENCODING 74
SWIDTH 508 0
DWIDTH 12 0
BBX 12 19 0 1
BITMAP
07E0
0180
0180
0180
0180
0180
0180
0180
0180
0180
0180
0180
0180
6180
E180
C180
C180
6300
1C00
ENDCHAR
STARTCHAR K
ENCODING 75
SWIDTH 508 0
DWIDTH 12 0
BBX 12 19 0 1
BITMAP
F1E0
6040
6080
6080
6100
6200
6200
6400
6800
7C00
7C00
6600
6600
6300
6300
6180
6180
60C0
F1E0
ENDCHAR
STARTCHAR L
ENCODING 76
SWIDTH 508 0
DWIDTH 12 0
BBX 12 19 0 1
BITMAP
F000
6000
6000
6000
6000
6000
6000
6000
6000
6000
6000
6000
6000
6000
6000
6020
6040
60C0
FFC0
ENDCHAR
STARTCHAR M
ENCODING 77
SWIDTH 508 0
DWIDTH 12 0
BBX 12 19 0 1
BITMAP
E070
6060
60E0
70E0
70E0
7160
5960
5960
5B60
4E60
4E60
4E60
4460
4460
4060
4060
4060
4060
E0F0
ENDCHAR
STARTCHAR N
ENCODING 78
SWIDTH 508 0
DWIDTH 12 0
BBX 12 19 0 1
BITMAP
E0E0
6040
7040
7040
7040
5840
5840
4C40
4C40
4640
4640
4340
4340
4340
41C0
41C0
40C0
40C0
E040
ENDCHAR
STARTCHAR O
ENCODING 79
SWIDTH 508 0
DWIDTH 12 0
BBX 12 19 0 1
BITMAP
1F00
60C0
4040
C060
C060
C060
C060
C060
C060
C060
C060
C060
C060
C060
C060
C060
4040
60C0
1F00
ENDCHAR
STARTCHAR P
ENCODING 80
SWIDTH 508 0
DWIDTH 12 0
BBX 12 19 0 1
BITMAP
FE00
6180
60C0
6060
6060
6060
6060
6060
60C0
6180
7E00
6000
6000
6000
6000
6000
6000
6000
F000
ENDCHAR
STARTCHAR Q
ENCODING 81
SWIDTH 508 0
DWIDTH 12 0
BBX 12 22 0 -2
BITMAP
1E00
6180
4080
C0C0
C0C0
C0C0
C0C0
C0C0
C0C0
C0C0
C0C0
C0C0
C0C0
C0C0
CCC0
D2C0
6280
6380
1E00
0320
01E0
00C0
ENDCHAR
STARTCHAR R
ENCODING 82
SWIDTH 508 0
DWIDTH 12 0
BBX 12 19 0 1
BITMAP
FE00
6180
6080
60C0
60C0
60C0
60C0
6080
6180
7E00
6200
6100
6180
6180
6180
6180
61A0
61A0
F0C0
ENDCHAR
STARTCHAR S
ENCODING 83
SWIDTH 508 0
DWIDTH 12 0
BBX 12 19 0 1
BITMAP
1E40
61C0
C0C0
C040
C000
C000
E000
7000
3E00
0F80
01C0
00E0
0060
0060
0060
8060
C0C0
E180
9E00
ENDCHAR
STARTCHAR T
ENCODING 84
SWIDTH 508 0
DWIDTH 12 0
BBX 12 19 0 1
BITMAP
FFC0
CCC0
8C40
8C40
8C40
0C00
0C00
0C00
0C00
0C00
0C00
0C00
0C00
0C00
0C00
0C00
0C00
0C00
1E00
ENDCHAR
STARTCHAR U
ENCODING 85
SWIDTH 508 0
DWIDTH 12 0
BBX 12 19 0 1
BITMAP
F0E0
6040
6040
6040
6040
6040
6040
6040
6040
6040
6040
6040
6040
6040
6040
6040
6040
3080
1F00
ENDCHAR
STARTCHAR V
ENCODING 86
SWIDTH 508 0
DWIDTH 12 0
BBX 12 19 0 1
BITMAP
F0E0
6040
6040
6040
6040
3080
3080
3080
3080
1900
1900
1900
1B00
0A00
0E00
0E00
0400
0400
0400
ENDCHAR
STARTCHAR W
ENCODING 87
SWIDTH 508 0
DWIDTH 12 0
BBX 12 19 0 1
BITMAP
E060
C020
C020
C020
C020
C020
C620
C620
C620
C620
C620
CF20
CB20
6B40
6B40
7140
71C0
3180
3180
ENDCHAR
STARTCHAR X
ENCODING 88
SWIDTH 508 0
DWIDTH 12 0
BBX 12 19 0 1
BITMAP
F0E0
6040
6040
3080
3080
1900
1900
0A00
0E00
0400
0E00
0A00
1300
1300
2180
2180
40C0
40C0
E1E0
ENDCHAR
STARTCHAR Y
ENCODING 89
SWIDTH 508 0
DWIDTH 12 0
BBX 12 19 0 1
BITMAP
F0E0
6040
6040
3080
3080
3080
1900
1900
0F00
0E00
0600
0600
0600
0600
0600
0600
0600
0600
1F80
ENDCHAR
STARTCHAR Z
ENCODING 90
SWIDTH 508 0
DWIDTH 12 0
BBX 12 19 0 1
BITMAP
7FE0
40C0
40C0
8180
0180
0300
0300
0600
0600
0600
0C00
0C00
1800
1800
3000
3020
6040
60C0
FFC0
ENDCHAR
STARTCHAR bracketleft
ENCODING 91
SWIDTH 508 0
DWIDTH 12 0
BBX 12 24 0 -2
BITMAP
00C0
0380
0E00
0C00
0C00
0C00
0C00
0C00
0C00
0C00
0C00
0C00
0C00
0C00
0C00
0C00
0C00
0C00
0C00
0C00
0C00
0E00
0380
00C0
ENDCHAR
STARTCHAR backslash
ENCODING 92
SWIDTH 508 0
DWIDTH 12 0
BBX 12 22 0 -1
BITMAP
8000
C000
4000
6000
2000
3000
1000
1800
0800
0C00
0400
0600
0200
0300
0100
0180
0080
00C0
0040
0060
0020
0020
ENDCHAR
STARTCHAR bracketright
ENCODING 93
SWIDTH 508 0
DWIDTH 12 0
BBX 8 24 0 -2
BITMAP
60
78
1E
06
06
06
06
06
06
06
06
06
06
06
06
06
06
06
06
06
06
1E
78
60
ENDCHAR
STARTCHAR asciicircum
ENCODING 94
SWIDTH 508 0
DWIDTH 12 0
BBX 12 6 0 16
BITMAP
0400
0E00
1F00
3B80
60C0
C060
ENDCHAR
STARTCHAR underscore
ENCODING 95
SWIDTH 508 0
DWIDTH 12 0
BBX 12 2 0 -2
BITMAP
FFF0
FFF0
ENDCHAR
STARTCHAR grave
ENCODING 96
SWIDTH 508 0
DWIDTH 12 0
BBX 12 5 0 17
BITMAP
1800
3C00
1E00
0700
0180
ENDCHAR
STARTCHAR a
ENCODING 97
SWIDTH 508 0
DWIDTH 12 0
BBX 12 13 0 1
BITMAP
1C00
7300
4180
0180
0180
1F80
6180
C180
C180
C180
C1A0
63A0
3CC0
ENDCHAR
STARTCHAR b
ENCODING 98
SWIDTH 508 0
DWIDTH 12 0
BBX 12 19 0 1
BITMAP
6000
E000
6000
6000
6000
6000
6E00
7180
60C0
60C0
6060
6060
6060
6060
6060
60C0
60C0
7180
4E00
ENDCHAR
STARTCHAR c
ENCODING 99
SWIDTH 508 0
DWIDTH 12 0
BBX 12 13 0 1
BITMAP
0E00
3180
60C0
60C0
C000
C000
C000
C000
C000
6000
6040
3180
0E00
ENDCHAR
STARTCHAR d
ENCODING 100
SWIDTH 508 0
DWIDTH 12 0
BBX 12 19 0 1
BITMAP
00C0
03C0
00C0
00C0
00C0
00C0
0EC0
31C0
60C0
60C0
C0C0
C0C0
C0C0
C0C0
C0C0
60C0
60C0
31C0
0EE0
ENDCHAR
STARTCHAR e
ENCODING 101
SWIDTH 508 0
DWIDTH 12 0
BBX 12 13 0 1
BITMAP
0E00
3180
60C0
60E0
C060
FFE0
C000
C000
C000
6000
6020
30C0
0F00
ENDCHAR
STARTCHAR f
ENCODING 102
SWIDTH 508 0
DWIDTH 12 0
BBX 12 19 0 1
BITMAP
01C0
0660
0460
0C00
0C00
0C00
FFC0
0C00
0C00
0C00
0C00
0C00
0C00
0C00
0C00
0C00
0C00
0C00
3F00
ENDCHAR
STARTCHAR g
ENCODING 103
SWIDTH 508 0
DWIDTH 12 0
BBX 12 17 0 -2
BITMAP
0060
0EE0
3180
60C0
60C0
60C0
3180
0E00
1000
3000
1F00
27C0
40E0
C060
C060
60C0
1F00
ENDCHAR
STARTCHAR h
ENCODING 104
SWIDTH 508 0
DWIDTH 12 0
BBX 12 19 0 1
BITMAP
6000
E000
6000
6000
6000
6000
6F00
7180
60C0
60C0
60C0
60C0
60C0
60C0
60C0
60C0
60C0
60C0
F1E0
ENDCHAR
STARTCHAR i
ENCODING 105
SWIDTH 508 0
DWIDTH 12 0
BBX 8 19 0 1
BITMAP
1C
1C
1C
00
00
00
3C
0C
0C
0C
0C
0C
0C
0C
0C
0C
0C
0C
3F
ENDCHAR
STARTCHAR j
ENCODING 106
SWIDTH 508 0
DWIDTH 12 0
BBX 8 22 0 -2
BITMAP
07
07
07
00
00
00
0F
03
03
03
03
03
03
03
03
03
03
03
03
C3
C6
7C
ENDCHAR
STARTCHAR k
ENCODING 107
SWIDTH 508 0
DWIDTH 12 0
BBX 12 19 0 1
BITMAP
6000
E000
6000
6000
6000
6000
61E0
6080
6100
6200
6400
6800
7800
6C00
6600
6300
6180
60C0
F1E0
ENDCHAR
STARTCHAR l
ENCODING 108
SWIDTH 508 0
DWIDTH 12 0
BBX 8 19 0 1
BITMAP
0C
3C
0C
0C
0C
0C
0C
0C
0C
0C
0C
0C
0C
0C
0C
0C
0C
0C
3F
ENDCHAR
STARTCHAR m
ENCODING 109
SWIDTH 508 0
DWIDTH 12 0
BBX 12 13 0 1
BITMAP
6DC0
F660
6660
6660
6660
6660
6660
6660
6660
6660
6660
6660
EF70
ENDCHAR
STARTCHAR n
ENCODING 110
SWIDTH 508 0
DWIDTH 12 0
BBX 12 13 0 1
BITMAP
6600
F980
60C0
60C0
60C0
60C0
60C0
60C0
60C0
60C0
60C0
60C0
F1E0
ENDCHAR
STARTCHAR o
ENCODING 111
SWIDTH 508 0
DWIDTH 12 0
BBX 12 13 0 1
BITMAP
0E00
3180
60C0
4040
C060
C060
C060
C060
C060
4040
60C0
3180
0E00
ENDCHAR
STARTCHAR p
ENCODING 112
SWIDTH 508 0
DWIDTH 12 0
BBX 12 16 0 -2
BITMAP
6E00
F180
60C0
6060
6060
6060
6060
6060
60C0
7180
6E00
6000
6000
6000
6000
F000
ENDCHAR
STARTCHAR q
ENCODING 113
SWIDTH 508 0
DWIDTH 12 0
BBX 12 16 0 -2
BITMAP
0E40
31C0
60C0
C0C0
C0C0
C0C0
C0C0
C0C0
60C0
31C0
0EC0
00C0
00C0
00C0
00C0
01E0
ENDCHAR
STARTCHAR r
ENCODING 114
SWIDTH 508 0
DWIDTH 12 0
BBX 12 13 0 1
BITMAP
31C0
F3E0
3660
3800
3000
3000
3000
3000
3000
3000
3000
3000
FC00
ENDCHAR
STARTCHAR s
ENCODING 115
SWIDTH 508 0
DWIDTH 12 0
BBX 12 13 0 1
BITMAP
1E40
61C0
C0C0
C040
E000
7C00
1F80
03C0
00E0
8060
C060
E0C0
9F00
ENDCHAR
STARTCHAR t
ENCODING 116
SWIDTH 508 0
DWIDTH 12 0
BBX 12 19 0 1
BITMAP
1800
1800
1800
1800
1800
1800
FF80
1800
1800
1800
1800
1800
1800
1800
1800
1820
1820
0C40
0780
ENDCHAR
STARTCHAR u
ENCODING 117
SWIDTH 508 0
DWIDTH 12 0
BBX 12 13 0 1
BITMAP
60C0
E1C0
60C0
60C0
60C0
60C0
60C0
60C0
60C0
60C0
60C0
33C0
1CE0
ENDCHAR
STARTCHAR v
ENCODING 118
SWIDTH 508 0
DWIDTH 12 0
BBX 12 13 0 1
BITMAP
F0E0
6040
6040
3080
3080
3080
1900
1900
1A00
0E00
0E00
0400
0400
ENDCHAR
STARTCHAR w
ENCODING 119
SWIDTH 508 0
DWIDTH 12 0
BBX 12 13 0 1
BITMAP
E060
C020
C020
C620
C620
C620
CE20
CB20
CB20
5160
71C0
60C0
2080
ENDCHAR
STARTCHAR x
ENCODING 120
SWIDTH 508 0
DWIDTH 12 0
BBX 12 13 0 1
BITMAP
F0E0
6040
3080
1900
1900
0E00
0400
0E00
1300
1300
2180
40C0
E1E0
ENDCHAR
STARTCHAR y
ENCODING 121
SWIDTH 508 0
DWIDTH 12 0
BBX 12 16 0 -2
BITMAP
F0E0
6040
6040
3080
3080
1880
1900
0D00
0E00
0600
0200
0400
0400
C800
C800
7000
ENDCHAR
STARTCHAR z
ENCODING 122
SWIDTH 508 0
DWIDTH 12 0
BBX 12 13 0 1
BITMAP
7FE0
60C0
4180
8180
0300
0600
0400
0C00
1800
3020
3040
6040
FFC0
ENDCHAR
STARTCHAR braceleft
ENCODING 123
SWIDTH 508 0
DWIDTH 12 0
BBX 12 24 0 -2
BITMAP
0040
0080
0080
0180
0180
0180
0180
0180
0180
0100
0200
0400
0200
0100
0180
0180
0180
0180
0180
0180
0180
0080
0080
0040
ENDCHAR
STARTCHAR bar
ENCODING 124
SWIDTH 508 0
DWIDTH 12 0
BBX 12 23 0 -2
BITMAP
0600
0600
0600
0600
0600
0600
0600
0600
0600
0600
0600
0600
0600
0600
0600
0600
0600
0600
0600
0600
0600
0600
0600
ENDCHAR
STARTCHAR braceright
ENCODING 125
SWIDTH 508 0
DWIDTH 12 0
BBX 12 24 0 -2
BITMAP
4000
2000
2000
3000
3000
3000
3000
3000
3000
1000
0800
0400
0800
1000
3000
3000
3000
3000
3000
3000
3000
2000
2000
4000
ENDCHAR
STARTCHAR asciitilde
ENCODING 126
SWIDTH 508 0
DWIDTH 12 0
BBX 12 4 0 18
BITMAP
3820
7C60
C7C0
8380
ENDCHAR
STARTCHAR bullet
ENCODING 149
SWIDTH 508 0
DWIDTH 12 0
BBX 12 5 0 6
BITMAP
0700
0F80
0F80
0F80
0700
ENDCHAR
STARTCHAR lessequal
ENCODING 152
SWIDTH 508 0
DWIDTH 12 0
BBX 12 14 0 1
BITMAP
0040
00C0
0380
0E00
3800
E000
3800
0E00
0380
00C0
0040
FFC0
0000
FFC0
ENDCHAR
STARTCHAR greaterequal
ENCODING 153
SWIDTH 508 0
DWIDTH 12 0
BBX 12 14 0 1
BITMAP
8000
C000
7000
1C00
0700
01C0
0700
1C00
7000
C000
8000
FFC0
0000
FFC0
ENDCHAR
STARTCHAR space
ENCODING 154
SWIDTH 508 0
DWIDTH 12 0
BBX 0 0 0 0
BITMAP
ENDCHAR
STARTCHAR degree
ENCODING 156
SWIDTH 508 0
DWIDTH 12 0
BBX 12 6 0 14
BITMAP
0E00
1B00
3180
3180
1B00
0E00
ENDCHAR
STARTCHAR twosuperior
ENCODING 157
SWIDTH 508 0
DWIDTH 12 0
BBX 12 9 0 11
BITMAP
0F00
1980
1980
0180
0300
0400
0880
1980
1F80
ENDCHAR
STARTCHAR periodcentered
ENCODING 158
SWIDTH 508 0
DWIDTH 12 0
BBX 12 2 0 8
BITMAP
0C00
0C00
ENDCHAR
STARTCHAR afii10071
ENCODING 163
SWIDTH 508 0
DWIDTH 12 0
BBX 12 17 0 1
BITMAP
3180
3180
0000
0000
0E00
3180
60C0
60E0
C060
FFE0
C000
C000
C000
6000
6020
30C0
0F00
ENDCHAR
STARTCHAR afii10023
ENCODING 179
SWIDTH 508 0
DWIDTH 12 0
BBX 12 22 0 1
BITMAP
3300
3300
0000
FFC0
60C0
6040
6020
6000
6000
6100
6100
6300
7F00
6300
6100
6100
6000
6000
6020
6040
60C0
FFC0
ENDCHAR
STARTCHAR copyright
ENCODING 191
SWIDTH 508 0
DWIDTH 12 0
BBX 12 19 0 1
BITMAP
0F00
30C0
6060
4020
CF30
98D0
B070
E070
E010
E010
E010
E010
B030
98D0
CF30
4020
6060
30C0
0F00
ENDCHAR
STARTCHAR afii10096
ENCODING 192
SWIDTH 508 0
DWIDTH 12 0
BBX 12 13 0 1
BITMAP
C300
CCC0
C840
D860
D860
D860
F860
D860
D860
D860
C840
CCC0
C300
ENDCHAR
STARTCHAR afii10065
ENCODING 193
SWIDTH 508 0
DWIDTH 12 0
BBX 12 13 0 1
BITMAP
1C00
7300
4180
0180
0180
1F80
6180
C180
C180
C180
C1A0
63A0
3CC0
ENDCHAR
STARTCHAR afii10066
ENCODING 194
SWIDTH 508 0
DWIDTH 12 0
BBX 12 19 0 1
BITMAP
0020
0FC0
1F80
3000
2000
4000
4E00
B180
E0C0
C040
C060
C060
C060
C060
C060
4040
60C0
3180
0E00
ENDCHAR
STARTCHAR afii10088
ENCODING 195
SWIDTH 508 0
DWIDTH 12 0
BBX 12 15 0 -1
BITMAP
F1E0
60C0
60C0
60C0
60C0
60C0
60C0
60C0
60C0
60C0
60C0
60C0
FFE0
0060
0020
ENDCHAR
STARTCHAR afii10069
ENCODING 196
SWIDTH 508 0
DWIDTH 12 0
BBX 12 16 0 -2
BITMAP
1FE0
08C0
08C0
08C0
08C0
10C0
10C0
10C0
10C0
20C0
20C0
60C0
FFE0
C060
8020
8020
ENDCHAR
STARTCHAR afii10070
ENCODING 197
SWIDTH 508 0
DWIDTH 12 0
BBX 12 13 0 1
BITMAP
0E00
3180
60C0
60E0
C060
FFE0
C000
C000
C000
6000
6020
30C0
0F00
ENDCHAR
STARTCHAR afii10086
ENCODING 198
SWIDTH 508 0
DWIDTH 12 0
BBX 12 21 0 -3
BITMAP
0F00
0600
0600
0600
1F80
36C0
6660
6660
6660
6660
6660
6660
6660
6660
6660
36C0
1F80
0600
0600
0600
0F00
ENDCHAR
STARTCHAR afii10068
ENCODING 199
SWIDTH 508 0
DWIDTH 12 0
BBX 12 13 0 1
BITMAP
7FC0
30C0
3040
3020
3000
3000
3000
3000
3000
3000
3000
3000
7800
ENDCHAR
STARTCHAR afii10087
ENCODING 200
SWIDTH 508 0
DWIDTH 12 0
BBX 12 13 0 1
BITMAP
F0E0
6040
3080
1900
1900
0E00
0400
0E00
1300
1300
2180
40C0
E1E0
ENDCHAR
STARTCHAR afii10074
ENCODING 201
SWIDTH 508 0
DWIDTH 12 0
BBX 12 13 0 1
BITMAP
F1E0
60C0
61C0
62C0
62C0
64C0
64C0
68C0
68C0
70C0
60C0
60C0
F1E0
ENDCHAR
STARTCHAR afii10075
ENCODING 202
SWIDTH 508 0
DWIDTH 12 0
BBX 12 17 0 1
BITMAP
3180
1100
0E00
0000
F1E0
60C0
61C0
62C0
62C0
64C0
64C0
68C0
68C0
70C0
60C0
60C0
F1E0
ENDCHAR
STARTCHAR afii10076
ENCODING 203
SWIDTH 508 0
DWIDTH 12 0
BBX 12 13 0 1
BITMAP
F1E0
60C0
60C0
6180
6300
6600
7E00
6300
6180
6180
60C0
60C0
F1E0
ENDCHAR
STARTCHAR afii10077
ENCODING 204
SWIDTH 508 0
DWIDTH 12 0
BBX 12 13 0 1
BITMAP
3FE0
10C0
10C0
10C0
10C0
10C0
10C0
10C0
10C0
10C0
D0C0
D0C0
61E0
ENDCHAR
STARTCHAR afii10078
ENCODING 205
SWIDTH 508 0
DWIDTH 12 0
BBX 12 13 0 1
BITMAP
6060
60E0
70E0
70E0
7160
5960
5960
5B60
4E60
4E60
4E60
4460
E4E0
ENDCHAR
STARTCHAR afii10079
ENCODING 206
SWIDTH 508 0
DWIDTH 12 0
BBX 12 13 0 1
BITMAP
F1E0
60C0
60C0
60C0
60C0
60C0
7FC0
60C0
60C0
60C0
60C0
60C0
F1E0
ENDCHAR
STARTCHAR afii10080
ENCODING 207
SWIDTH 508 0
DWIDTH 12 0
BBX 12 13 0 1
BITMAP
0E00
3180
60C0
4040
C060
C060
C060
C060
C060
4040
60C0
3180
0E00
ENDCHAR
STARTCHAR afii10081
ENCODING 208
SWIDTH 508 0
DWIDTH 12 0
BBX 12 13 0 1
BITMAP
FFE0
60C0
60C0
60C0
60C0
60C0
60C0
60C0
60C0
60C0
60C0
60C0
F1E0
ENDCHAR
STARTCHAR afii10097
ENCODING 209
SWIDTH 508 0
DWIDTH 12 0
BBX 12 13 0 1
BITMAP
1FC0
30C0
60C0
60C0
60C0
30C0
1FC0
18C0
30C0
30C0
30C0
70C0
71E0
ENDCHAR
STARTCHAR afii10082
ENCODING 210
SWIDTH 508 0
DWIDTH 12 0
BBX 12 17 0 -3
BITMAP
6F00
F180
60C0
6060
6060
6060
6060
6060
6060
60C0
7180
6F00
6000
6000
6000
6000
F000
ENDCHAR
STARTCHAR afii10083
ENCODING 211
SWIDTH 508 0
DWIDTH 12 0
BBX 12 13 0 1
BITMAP
0700
18C0
3060
3060
6000
6000
6000
6000
6000
3000
3020
18C0
0700
ENDCHAR
STARTCHAR afii10084
ENCODING 212
SWIDTH 508 0
DWIDTH 12 0
BBX 12 13 0 1
BITMAP
7FE0
6660
4620
4620
0600
0600
0600
0600
0600
0600
0600
0600
0F00
ENDCHAR
STARTCHAR afii10085
ENCODING 213
SWIDTH 508 0
DWIDTH 12 0
BBX 12 16 0 -2
BITMAP
F0E0
6040
6040
3080
3080
1880
1900
0D00
0E00
0600
0200
0400
0400
C800
C800
7000
ENDCHAR
STARTCHAR afii10072
ENCODING 214
SWIDTH 508 0
DWIDTH 12 0
BBX 12 13 0 1
BITMAP
C460
64C0
64C0
2480
2480
1500
0E00
3580
64C0
64C0
64C0
64C0
C460
ENDCHAR
STARTCHAR afii10067
ENCODING 215
SWIDTH 508 0
DWIDTH 12 0
BBX 12 13 0 1
BITMAP
7F00
3180
30C0
30C0
30C0
3180
3F80
30C0
3060
3060
3060
30C0
7F80
ENDCHAR
STARTCHAR afii10094
ENCODING 216
SWIDTH 508 0
DWIDTH 12 0
BBX 12 13 0 1
BITMAP
7800
3000
3000
3000
3000
3E00
3180
30C0
30C0
30C0
30C0
3180
7E00
ENDCHAR
STARTCHAR afii10093
ENCODING 217
SWIDTH 508 0
DWIDTH 12 0
BBX 12 13 0 1
BITMAP
C060
C060
C060
C060
C060
F860
C660
C360
C360
C360
C360
C660
F860
ENDCHAR
STARTCHAR afii10073
ENCODING 218
SWIDTH 508 0
DWIDTH 12 0
BBX 12 13 0 1
BITMAP
1F00
3180
40C0
00C0
00C0
0180
0F80
01C0
00C0
C0C0
C0C0
6180
3E00
ENDCHAR
STARTCHAR afii10090
ENCODING 219
SWIDTH 508 0
DWIDTH 12 0
BBX 12 13 0 1
BITMAP
6660
6660
6660
6660
6660
6660
6660
6660
6660
6660
6660
6660
7FE0
ENDCHAR
STARTCHAR afii10095
ENCODING 220
SWIDTH 508 0
DWIDTH 12 0
BBX 12 13 0 1
BITMAP
1E00
3180
60C0
0040
0060
0660
19E0
0060
0060
0040
60C0
3180
1E00
ENDCHAR
STARTCHAR afii10091
ENCODING 221
SWIDTH 508 0
DWIDTH 12 0
BBX 12 15 0 -1
BITMAP
CCC0
CCC0
CCC0
CCC0
CCC0
CCC0
CCC0
CCC0
CCC0
CCC0
CCC0
CCC0
FFE0
0060
0020
ENDCHAR
STARTCHAR afii10089
ENCODING 222
SWIDTH 508 0
DWIDTH 12 0
BBX 12 13 0 1
BITMAP
F1E0
60C0
60C0
60C0
60C0
60C0
31C0
1EC0
00C0
00C0
00C0
00C0
01E0
ENDCHAR
STARTCHAR afii10092
ENCODING 223
SWIDTH 508 0
DWIDTH 12 0
BBX 12 13 0 1
BITMAP
F800
D800
9800
1800
1800
1F00
18C0
1860
1860
1860
1860
18C0
3F00
ENDCHAR
STARTCHAR afii10048
ENCODING 224
SWIDTH 508 0
DWIDTH 12 0
BBX 12 19 0 1
BITMAP
C300
CCC0
C840
D860
D860
D860
D860
D860
D860
F860
D860
D860
D860
D860
D860
D860
C840
CCC0
C300
ENDCHAR
STARTCHAR afii10017
ENCODING 225
SWIDTH 508 0
DWIDTH 12 0
BBX 12 19 0 1
BITMAP
0600
0600
0600
0B00
0B00
0B00
0980
1180
1180
1180
20C0
20C0
3FC0
20C0
4060
4060
4060
4060
E0F0
ENDCHAR
STARTCHAR afii10018
ENCODING 226
SWIDTH 508 0
DWIDTH 12 0
BBX 12 19 0 1
BITMAP
FFC0
60C0
6040
6020
6000
6000
6000
7E00
6180
60C0
6060
6060
6060
6060
6060
6060
60C0
6180
FE00
ENDCHAR
STARTCHAR afii10040
ENCODING 227
SWIDTH 508 0
DWIDTH 12 0
BBX 12 22 0 -2
BITMAP
F1E0
60C0
60C0
60C0
60C0
60C0
60C0
60C0
60C0
60C0
60C0
60C0
60C0
60C0
60C0
60C0
60C0
60C0
FFE0
0060
0020
0020
ENDCHAR
STARTCHAR afii10021
ENCODING 228
SWIDTH 508 0
DWIDTH 12 0
BBX 12 22 0 -2
BITMAP
1FE0
08C0
08C0
08C0
08C0
08C0
10C0
10C0
10C0
10C0
10C0
20C0
20C0
20C0
20C0
40C0
40C0
40C0
FFE0
C060
8020
8020
ENDCHAR
STARTCHAR afii10022
ENCODING 229
SWIDTH 508 0
DWIDTH 12 0
BBX 12 19 0 1
BITMAP
FFC0
60C0
6040
6020
6000
6000
6100
6100
6300
7F00
6300
6100
6100
6000
6000
6020
6040
60C0
FFC0
ENDCHAR
STARTCHAR afii10038
ENCODING 230
SWIDTH 508 0
DWIDTH 12 0
BBX 12 19 0 1
BITMAP
0F00
0600
0F00
36C0
2640
6660
6660
6660
6660
6660
6660
6660
6660
2640
36C0
0F00
0600
0600
0F00
ENDCHAR
STARTCHAR afii10020
ENCODING 231
SWIDTH 508 0
DWIDTH 12 0
BBX 12 19 0 1
BITMAP
FFC0
60C0
6040
6020
6000
6000
6000
6000
6000
6000
6000
6000
6000
6000
6000
6000
6000
6000
F000
ENDCHAR
STARTCHAR afii10039
ENCODING 232
SWIDTH 508 0
DWIDTH 12 0
BBX 12 19 0 1
BITMAP
F0E0
6040
6040
3080
3080
1900
1900
0A00
0E00
0400
0E00
0A00
1300
1300
2180
2180
40C0
40C0
E1E0
ENDCHAR
STARTCHAR afii10026
ENCODING 233
SWIDTH 508 0
DWIDTH 12 0
BBX 12 19 0 1
BITMAP
F1E0
60C0
60C0
61C0
61C0
62C0
62C0
62C0
64C0
64C0
64C0
68C0
68C0
68C0
70C0
70C0
60C0
60C0
F1E0
ENDCHAR
STARTCHAR afii10027
ENCODING 234
SWIDTH 508 0
DWIDTH 12 0
BBX 12 22 0 1
BITMAP
3180
1B00
0E00
E0E0
60C0
60C0
60C0
61C0
61C0
62C0
62C0
62C0
64C0
64C0
64C0
68C0
68C0
68C0
70C0
70C0
60C0
F1E0
ENDCHAR
STARTCHAR afii10028
ENCODING 235
SWIDTH 508 0
DWIDTH 12 0
BBX 12 19 0 1
BITMAP
F1E0
60C0
60C0
60C0
6180
6180
6300
6300
6600
7E00
6600
6300
6300
6180
6180
61C0
60C0
60C0
F1E0
ENDCHAR
STARTCHAR afii10029
ENCODING 236
SWIDTH 508 0
DWIDTH 12 0
BBX 12 19 0 1
BITMAP
3FE0
10C0
10C0
10C0
10C0
10C0
10C0
10C0
10C0
10C0
10C0
10C0
10C0
10C0
10C0
10C0
D0C0
D0C0
61E0
ENDCHAR
STARTCHAR afii10030
ENCODING 237
SWIDTH 508 0
DWIDTH 12 0
BBX 12 19 0 1
BITMAP
E070
6060
60E0
70E0
70E0
7160
5960
5960
5B60
4E60
4E60
4E60
4460
4460
4060
4060
4060
4060
E0F0
ENDCHAR
STARTCHAR afii10031
ENCODING 238
SWIDTH 508 0
DWIDTH 12 0
BBX 12 19 0 1
BITMAP
F1E0
60C0
60C0
60C0
60C0
60C0
60C0
60C0
60C0
7FC0
60C0
60C0
60C0
60C0
60C0
60C0
60C0
60C0
F1E0
ENDCHAR
STARTCHAR afii10032
ENCODING 239
SWIDTH 508 0
DWIDTH 12 0
BBX 12 19 0 1
BITMAP
1F00
60C0
4040
C060
C060
C060
C060
C060
C060
C060
C060
C060
C060
C060
C060
C060
4040
60C0
1F00
ENDCHAR
STARTCHAR afii10033
ENCODING 240
SWIDTH 508 0
DWIDTH 12 0
BBX 12 19 0 1
BITMAP
FFE0
60C0
60C0
60C0
60C0
60C0
60C0
60C0
60C0
60C0
60C0
60C0
60C0
60C0
60C0
60C0
60C0
60C0
F1E0
ENDCHAR
STARTCHAR afii10049
ENCODING 241
SWIDTH 508 0
DWIDTH 12 0
BBX 12 19 0 1
BITMAP
0FE0
30C0
20C0
60C0
60C0
60C0
60C0
20C0
30C0
0FC0
08C0
10C0
30C0
30C0
30C0
30C0
B0C0
B0C0
61E0
ENDCHAR
STARTCHAR afii10034
ENCODING 242
SWIDTH 508 0
DWIDTH 12 0
BBX 12 19 0 1
BITMAP
FE00
6180
60C0
6060
6060
6060
6060
6060
60C0
6180
7E00
6000
6000
6000
6000
6000
6000
6000
F000
ENDCHAR
STARTCHAR afii10035
ENCODING 243
SWIDTH 508 0
DWIDTH 12 0
BBX 12 19 0 1
BITMAP
0720
18E0
3060
3020
6000
6000
6000
6000
6000
6000
6000
6000
6000
6000
6000
3020
3020
18C0
0700
ENDCHAR
STARTCHAR afii10036
ENCODING 244
SWIDTH 508 0
DWIDTH 12 0
BBX 12 19 0 1
BITMAP
7FE0
6660
4620
4620
4620
0600
0600
0600
0600
0600
0600
0600
0600
0600
0600
0600
0600
0600
0F00
ENDCHAR
STARTCHAR afii10037
ENCODING 245
SWIDTH 508 0
DWIDTH 12 0
BBX 12 19 0 1
BITMAP
F0E0
6040
6040
6040
3080
3080
3080
1900
1900
1900
0D00
0E00
0600
0600
0400
0400
C800
C800
7000
ENDCHAR
STARTCHAR afii10024
ENCODING 246
SWIDTH 508 0
DWIDTH 12 0
BBX 12 19 0 1
BITMAP
C460
64C0
64C0
64C0
64C0
2480
2480
2480
1500
0E00
3580
64C0
64C0
64C0
64C0
64C0
64C0
64C0
C460
ENDCHAR
STARTCHAR afii10019
ENCODING 247
SWIDTH 508 0
DWIDTH 12 0
BBX 12 19 0 1
BITMAP
FE00
6180
60C0
60C0
60C0
60C0
60C0
6080
6100
7E00
6180
60C0
6060
6060
6060
6060
60C0
6180
FE00
ENDCHAR
STARTCHAR afii10046
ENCODING 248
SWIDTH 508 0
DWIDTH 12 0
BBX 12 19 0 1
BITMAP
F000
6000
6000
6000
6000
6000
6000
7C00
6300
6180
60C0
60C0
60C0
60C0
60C0
60C0
6180
6300
FC00
ENDCHAR
STARTCHAR afii10045
ENCODING 249
SWIDTH 508 0
DWIDTH 12 0
BBX 12 19 0 1
BITMAP
C060
C060
C060
C060
C060
C060
C060
F060
CC60
C660
C360
C360
C360
C360
C360
C360
C660
CC60
F060
ENDCHAR
STARTCHAR afii10025
ENCODING 250
SWIDTH 508 0
DWIDTH 12 0
BBX 12 19 0 1
BITMAP
1E00
2180
40C0
40C0
0060
0060
00C0
00C0
0180
0E00
0180
00C0
00C0
0060
C060
C0C0
80C0
6180
1E00
ENDCHAR
STARTCHAR afii10042
ENCODING 251
SWIDTH 508 0
DWIDTH 12 0
BBX 12 19 0 1
BITMAP
6660
6660
6660
6660
6660
6660
6660
6660
6660
6660
6660
6660
6660
6660
6660
6660
6660
6660
7FE0
ENDCHAR
STARTCHAR afii10047
ENCODING 252
SWIDTH 508 0
DWIDTH 12 0
BBX 12 19 0 1
BITMAP
1E00
2180
40C0
40C0
0060
0060
0060
0060
0E60
1BE0
0060
0060
0060
0060
C060
C0C0
80C0
6180
1E00
ENDCHAR
STARTCHAR afii10043
ENCODING 253
SWIDTH 508 0
DWIDTH 12 0
BBX 12 22 0 -2
BITMAP
CCC0
CCC0
CCC0
CCC0
CCC0
CCC0
CCC0
CCC0
CCC0
CCC0
CCC0
CCC0
CCC0
CCC0
CCC0
CCC0
CCC0
CCC0
FFE0
0060
0020
0020
ENDCHAR
STARTCHAR afii10041
ENCODING 254
SWIDTH 508 0
DWIDTH 12 0
BBX 12 19 0 1
BITMAP
F1E0
60C0
60C0
60C0
60C0
60C0
60C0
60C0
60C0
31C0
1EC0
00C0
00C0
00C0
00C0
00C0
00C0
00C0
01E0
ENDCHAR
STARTCHAR afii10044
ENCODING 255
SWIDTH 508 0
DWIDTH 12 0
BBX 12 19 0 1
BITMAP
F800
D800
9800
1800
1800
1800
1800
1E00
1980
18C0
1860
1860
1860
1860
1860
1860
18C0
1980
3E00
ENDCHAR
ENDFONT
